<svg width="72" height="72" viewBox="0 0 72 72" fill="none" xmlns="http://www.w3.org/2000/svg">
<path d="M35.9183 3.81305L64.0038 19.8922V52.0504L35.9183 68.1295L7.83277 52.0504V19.8922L35.9183 3.81305ZM35.9183 0L4.5 17.9971V54.0029L35.9183 72L67.325 54.0029V17.9971L35.9183 0Z" fill="#197ACF"/>
<path d="M51.668 62.9733V9.05078L67.325 17.9977V54.0034L51.668 62.9733Z" fill="#197ACF"/>
<path d="M20.9688 63.4321C21.8251 63.145 51.6696 45.5498 51.6696 45.5498L67.3266 54.0028L35.9199 72L20.9688 63.4321Z" fill="url(#paint0_linear_311_5346)"/>
<path d="M20.9688 27.9085L35.9199 18.5252V71.9998L20.9688 63.4319V27.9085Z" fill="url(#paint1_linear_311_5346)"/>
<path d="M20.0195 9.10767L67.3263 36.4307V17.9971L51.7156 9.05025L35.9196 0L20.0195 9.10767Z" fill="url(#paint2_linear_311_5346)"/>
<defs>
<linearGradient id="paint0_linear_311_5346" x1="36.973" y1="57.4943" x2="77.408" y2="65.1741" gradientUnits="userSpaceOnUse">
<stop stop-color="#00C8FF"/>
<stop offset="1" stop-color="#055CFF"/>
</linearGradient>
<linearGradient id="paint1_linear_311_5346" x1="30.2149" y1="17.7672" x2="28.3454" y2="52.2125" gradientUnits="userSpaceOnUse">
<stop stop-color="#00C8FF"/>
<stop offset="1" stop-color="#197ACF"/>
</linearGradient>
<linearGradient id="paint2_linear_311_5346" x1="3523.56" y1="1678" x2="2514.21" y2="862.819" gradientUnits="userSpaceOnUse">
<stop stop-color="#00C8FF"/>
<stop offset="1" stop-color="#197ACF"/>
</linearGradient>
</defs>
</svg>
