<svg width="16" height="14" viewBox="0 0 16 14" fill="none" xmlns="http://www.w3.org/2000/svg">
<mask id="path-1-inside-1_302_1201" fill="white">
<path fill-rule="evenodd" clip-rule="evenodd" d="M10.6458 0.146427C10.6922 0.099864 10.7474 0.0629215 10.8081 0.037715C10.8689 0.0125084 10.934 -0.000466347 10.9998 -0.000466347C11.0655 -0.000466347 11.1306 0.0125084 11.1914 0.037715C11.2521 0.0629215 11.3073 0.099864 11.3538 0.146427L15.3538 4.14643C15.4476 4.24031 15.5004 4.36765 15.5004 4.50043C15.5004 4.6332 15.4476 4.76054 15.3538 4.85443C15.2599 4.94831 15.1325 5.00106 14.9998 5.00106C14.867 5.00106 14.7396 4.94831 14.6458 4.85443L11.4998 1.70743V11.5004C11.4998 12.1635 11.2364 12.7994 10.7675 13.2682C10.2987 13.737 9.6628 14.0004 8.99976 14.0004H0.999756C0.867148 14.0004 0.73997 13.9477 0.646202 13.854C0.552434 13.7602 0.499756 13.633 0.499756 13.5004C0.499756 13.3678 0.552434 13.2406 0.646202 13.1469C0.73997 13.0531 0.867148 13.0004 0.999756 13.0004H8.99976C9.39758 13.0004 9.77911 12.8424 10.0604 12.5611C10.3417 12.2798 10.4998 11.8983 10.4998 11.5004V1.70743L7.35376 4.85443C7.25987 4.94831 7.13253 5.00106 6.99976 5.00106C6.86698 5.00106 6.73964 4.94831 6.64576 4.85443C6.55187 4.76054 6.49912 4.6332 6.49912 4.50043C6.49912 4.36765 6.55187 4.24031 6.64576 4.14643L10.6458 0.146427Z"/>
</mask>
<path fill-rule="evenodd" clip-rule="evenodd" d="M10.6458 0.146427C10.6922 0.099864 10.7474 0.0629215 10.8081 0.037715C10.8689 0.0125084 10.934 -0.000466347 10.9998 -0.000466347C11.0655 -0.000466347 11.1306 0.0125084 11.1914 0.037715C11.2521 0.0629215 11.3073 0.099864 11.3538 0.146427L15.3538 4.14643C15.4476 4.24031 15.5004 4.36765 15.5004 4.50043C15.5004 4.6332 15.4476 4.76054 15.3538 4.85443C15.2599 4.94831 15.1325 5.00106 14.9998 5.00106C14.867 5.00106 14.7396 4.94831 14.6458 4.85443L11.4998 1.70743V11.5004C11.4998 12.1635 11.2364 12.7994 10.7675 13.2682C10.2987 13.737 9.6628 14.0004 8.99976 14.0004H0.999756C0.867148 14.0004 0.73997 13.9477 0.646202 13.854C0.552434 13.7602 0.499756 13.633 0.499756 13.5004C0.499756 13.3678 0.552434 13.2406 0.646202 13.1469C0.73997 13.0531 0.867148 13.0004 0.999756 13.0004H8.99976C9.39758 13.0004 9.77911 12.8424 10.0604 12.5611C10.3417 12.2798 10.4998 11.8983 10.4998 11.5004V1.70743L7.35376 4.85443C7.25987 4.94831 7.13253 5.00106 6.99976 5.00106C6.86698 5.00106 6.73964 4.94831 6.64576 4.85443C6.55187 4.76054 6.49912 4.6332 6.49912 4.50043C6.49912 4.36765 6.55187 4.24031 6.64576 4.14643L10.6458 0.146427Z" fill="#393838"/>
<path d="M10.6458 0.146427L11.3538 0.85264L11.3529 0.853534L10.6458 0.146427ZM11.3538 0.146427L10.6466 0.853535L10.6458 0.852639L11.3538 0.146427ZM15.3538 4.14643L16.0609 3.43932L15.3538 4.14643ZM14.9998 5.00106V4.00106V5.00106ZM14.6458 4.85443L13.9386 5.56153L13.9385 5.56142L14.6458 4.85443ZM11.4998 1.70743H10.4998V-0.70733L12.207 1.00043L11.4998 1.70743ZM0.999756 14.0004V15.0004V14.0004ZM0.999756 13.0004V12.0004V13.0004ZM10.4998 1.70743L9.79254 1.00043L11.4998 -0.70733V1.70743H10.4998ZM7.35376 4.85443L8.06098 5.56142L8.06086 5.56153L7.35376 4.85443ZM6.99976 5.00106V6.00106V5.00106ZM6.49912 4.50043H5.49912H6.49912ZM6.64576 4.14643L5.93865 3.43932L6.64576 4.14643ZM9.93776 -0.559785C10.0771 -0.699475 10.2426 -0.810304 10.4249 -0.885922L11.1914 0.961352C11.2521 0.936146 11.3073 0.899203 11.3538 0.852639L9.93776 -0.559785ZM10.4249 -0.885922C10.6071 -0.961542 10.8025 -1.00047 10.9998 -1.00047V0.999534C11.0655 0.999534 11.1306 0.986559 11.1914 0.961352L10.4249 -0.885922ZM10.9998 -1.00047C11.1971 -1.00047 11.3924 -0.961541 11.5747 -0.885922L10.8081 0.961352C10.8689 0.986558 10.934 0.999534 10.9998 0.999534V-1.00047ZM11.5747 -0.885922C11.7569 -0.810306 11.9224 -0.699479 12.0618 -0.559785L10.6458 0.852639C10.6922 0.899207 10.7474 0.936149 10.8081 0.961352L11.5747 -0.885922ZM12.0609 -0.560679L16.0609 3.43932L14.6466 4.85353L10.6466 0.853534L12.0609 -0.560679ZM16.0609 3.43932C16.3423 3.72075 16.5004 4.10244 16.5004 4.50043H14.5004C14.5004 4.63287 14.553 4.75988 14.6466 4.85353L16.0609 3.43932ZM16.5004 4.50043C16.5004 4.89842 16.3423 5.28011 16.0609 5.56153L14.6466 4.14732C14.553 4.24097 14.5004 4.36799 14.5004 4.50043H16.5004ZM16.0609 5.56153C15.7794 5.84296 15.3977 6.00106 14.9998 6.00106V4.00106C14.8673 4.00106 14.7403 4.05367 14.6466 4.14732L16.0609 5.56153ZM14.9998 6.00106C14.6018 6.00106 14.2201 5.84296 13.9386 5.56153L15.3529 4.14732C15.2592 4.05367 15.1322 4.00106 14.9998 4.00106V6.00106ZM13.9385 5.56142L10.7925 2.41442L12.207 1.00043L15.353 4.14743L13.9385 5.56142ZM12.4998 1.70743V11.5004H10.4998V1.70743H12.4998ZM12.4998 11.5004C12.4998 12.4287 12.131 13.3189 11.4746 13.9753L10.0604 12.5611C10.3417 12.2798 10.4998 11.8983 10.4998 11.5004H12.4998ZM11.4746 13.9753C10.8183 14.6317 9.92801 15.0004 8.99976 15.0004V13.0004C9.39758 13.0004 9.77911 12.8424 10.0604 12.5611L11.4746 13.9753ZM8.99976 15.0004H0.999756V13.0004H8.99976V15.0004ZM0.999756 15.0004C0.601932 15.0004 0.220401 14.8424 -0.0609047 14.5611L1.35331 13.1469C1.25954 13.0531 1.13236 13.0004 0.999756 13.0004V15.0004ZM-0.0609047 14.5611C-0.342211 14.2798 -0.500244 13.8982 -0.500244 13.5004H1.49976C1.49976 13.3678 1.44708 13.2406 1.35331 13.1469L-0.0609047 14.5611ZM-0.500244 13.5004C-0.500244 13.1026 -0.342211 12.7211 -0.0609047 12.4398L1.35331 13.854C1.44708 13.7602 1.49976 13.633 1.49976 13.5004H-0.500244ZM-0.0609047 12.4398C0.220401 12.1585 0.601932 12.0004 0.999756 12.0004V14.0004C1.13236 14.0004 1.25954 13.9477 1.35331 13.854L-0.0609047 12.4398ZM0.999756 12.0004H8.99976V14.0004H0.999756V12.0004ZM8.99976 12.0004C9.13236 12.0004 9.25954 11.9477 9.35331 11.854L10.7675 13.2682C10.2987 13.737 9.6628 14.0004 8.99976 14.0004V12.0004ZM9.35331 11.854C9.44708 11.7602 9.49976 11.633 9.49976 11.5004H11.4998C11.4998 12.1635 11.2364 12.7994 10.7675 13.2682L9.35331 11.854ZM9.49976 11.5004V1.70743H11.4998V11.5004H9.49976ZM11.207 2.41442L8.06098 5.56142L6.64654 4.14743L9.79254 1.00043L11.207 2.41442ZM8.06086 5.56153C7.77944 5.84296 7.39775 6.00106 6.99976 6.00106V4.00106C6.86732 4.00106 6.7403 4.05367 6.64665 4.14732L8.06086 5.56153ZM6.99976 6.00106C6.60177 6.00106 6.22007 5.84296 5.93865 5.56153L7.35286 4.14732C7.25921 4.05367 7.13219 4.00106 6.99976 4.00106V6.00106ZM5.93865 5.56153C5.65722 5.28011 5.49912 4.89842 5.49912 4.50043H7.49912C7.49912 4.36799 7.44651 4.24097 7.35286 4.14732L5.93865 5.56153ZM5.49912 4.50043C5.49912 4.10244 5.65722 3.72075 5.93865 3.43932L7.35286 4.85353C7.44651 4.75988 7.49912 4.63287 7.49912 4.50043H5.49912ZM5.93865 3.43932L9.93865 -0.560679L11.3529 0.853534L7.35286 4.85353L5.93865 3.43932Z" fill="#393838" mask="url(#path-1-inside-1_302_1201)"/>
</svg>
