<svg width="14" height="16" viewBox="0 0 14 16" fill="none" xmlns="http://www.w3.org/2000/svg">
<mask id="path-1-inside-1_302_1198" fill="white">
<path fill-rule="evenodd" clip-rule="evenodd" d="M13.8535 5.35433C13.9001 5.30788 13.937 5.25271 13.9622 5.19196C13.9874 5.13122 14.0004 5.06609 14.0004 5.00033C14.0004 4.93456 13.9874 4.86944 13.9622 4.80869C13.937 4.74795 13.9001 4.69277 13.8535 4.64633L9.85351 0.646326C9.75963 0.552439 9.63229 0.499695 9.49951 0.499695C9.36674 0.499695 9.2394 0.552439 9.14551 0.646326C9.05163 0.740213 8.99888 0.86755 8.99888 1.00033C8.99888 1.1331 9.05163 1.26044 9.14551 1.35433L12.2925 4.50033H2.49951C1.83647 4.50033 1.20059 4.76372 0.731745 5.23256C0.262904 5.7014 -0.000488281 6.33729 -0.000488281 7.00033V15.0003C-0.000488281 15.1329 0.0521901 15.2601 0.145958 15.3539C0.239726 15.4476 0.366903 15.5003 0.499512 15.5003C0.63212 15.5003 0.759297 15.4476 0.853065 15.3539C0.946833 15.2601 0.999512 15.1329 0.999512 15.0003V7.00033C0.999512 6.6025 1.15755 6.22097 1.43885 5.93967C1.72016 5.65836 2.10169 5.50033 2.49951 5.50033H12.2925L9.14551 8.64633C9.05163 8.74021 8.99888 8.86755 8.99888 9.00033C8.99888 9.1331 9.05163 9.26044 9.14551 9.35433C9.2394 9.44821 9.36674 9.50096 9.49951 9.50096C9.63229 9.50096 9.75963 9.44821 9.85351 9.35433L13.8535 5.35433Z"/>
</mask>
<path fill-rule="evenodd" clip-rule="evenodd" d="M13.8535 5.35433C13.9001 5.30788 13.937 5.25271 13.9622 5.19196C13.9874 5.13122 14.0004 5.06609 14.0004 5.00033C14.0004 4.93456 13.9874 4.86944 13.9622 4.80869C13.937 4.74795 13.9001 4.69277 13.8535 4.64633L9.85351 0.646326C9.75963 0.552439 9.63229 0.499695 9.49951 0.499695C9.36674 0.499695 9.2394 0.552439 9.14551 0.646326C9.05163 0.740213 8.99888 0.86755 8.99888 1.00033C8.99888 1.1331 9.05163 1.26044 9.14551 1.35433L12.2925 4.50033H2.49951C1.83647 4.50033 1.20059 4.76372 0.731745 5.23256C0.262904 5.7014 -0.000488281 6.33729 -0.000488281 7.00033V15.0003C-0.000488281 15.1329 0.0521901 15.2601 0.145958 15.3539C0.239726 15.4476 0.366903 15.5003 0.499512 15.5003C0.63212 15.5003 0.759297 15.4476 0.853065 15.3539C0.946833 15.2601 0.999512 15.1329 0.999512 15.0003V7.00033C0.999512 6.6025 1.15755 6.22097 1.43885 5.93967C1.72016 5.65836 2.10169 5.50033 2.49951 5.50033H12.2925L9.14551 8.64633C9.05163 8.74021 8.99888 8.86755 8.99888 9.00033C8.99888 9.1331 9.05163 9.26044 9.14551 9.35433C9.2394 9.44821 9.36674 9.50096 9.49951 9.50096C9.63229 9.50096 9.75963 9.44821 9.85351 9.35433L13.8535 5.35433Z" fill="#393838"/>
<path d="M13.8535 5.35433L13.1473 4.64633L13.1464 4.64722L13.8535 5.35433ZM13.8535 4.64633L13.1464 5.35343L13.1473 5.35433L13.8535 4.64633ZM9.85351 0.646326L10.5606 -0.0607807V-0.0607808L9.85351 0.646326ZM8.99888 1.00033H9.99888H8.99888ZM9.14551 1.35433L8.43841 2.06143L8.43852 2.06155L9.14551 1.35433ZM12.2925 4.50033V5.50033H14.7073L12.9995 3.79311L12.2925 4.50033ZM2.49951 4.50033V3.50033V4.50033ZM-0.000488281 7.00033H-1.00049H-0.000488281ZM-0.000488281 15.0003H-1.00049H-0.000488281ZM0.999512 15.0003H1.99951H0.999512ZM12.2925 5.50033L12.9995 6.20755L14.7073 4.50033H12.2925V5.50033ZM9.14551 8.64633L8.43852 7.93911L8.43841 7.93922L9.14551 8.64633ZM8.99888 9.00033H7.99888H8.99888ZM9.49951 9.50096V10.501V9.50096ZM9.85351 9.35433L10.5606 10.0614L9.85351 9.35433ZM14.5597 6.06233C14.6994 5.92299 14.8102 5.75746 14.8859 5.57523L13.0386 4.80869C13.0638 4.74795 13.1007 4.69277 13.1473 4.64633L14.5597 6.06233ZM14.8859 5.57523C14.9615 5.39299 15.0004 5.19763 15.0004 5.00033H13.0004C13.0004 4.93456 13.0134 4.86944 13.0386 4.80869L14.8859 5.57523ZM15.0004 5.00033C15.0004 4.80302 14.9615 4.60766 14.8859 4.42543L13.0386 5.19196C13.0134 5.13122 13.0004 5.06609 13.0004 5.00033H15.0004ZM14.8859 4.42543C14.8102 4.2432 14.6994 4.07767 14.5597 3.93833L13.1473 5.35433C13.1007 5.30788 13.0638 5.2527 13.0386 5.19196L14.8859 4.42543ZM14.5606 3.93922L10.5606 -0.0607807L9.14641 1.35343L13.1464 5.35343L14.5606 3.93922ZM10.5606 -0.0607808C10.2792 -0.342205 9.8975 -0.500305 9.49951 -0.500305V1.49969C9.36707 1.49969 9.24006 1.44708 9.14641 1.35343L10.5606 -0.0607808ZM9.49951 -0.500305C9.10152 -0.500305 8.71983 -0.342205 8.43841 -0.0607807L9.85262 1.35343C9.75897 1.44708 9.63195 1.49969 9.49951 1.49969V-0.500305ZM8.43841 -0.0607807C8.15698 0.220644 7.99888 0.602336 7.99888 1.00033H9.99888C9.99888 1.13276 9.94627 1.25978 9.85262 1.35343L8.43841 -0.0607807ZM7.99888 1.00033C7.99888 1.39832 8.15698 1.78001 8.43841 2.06143L9.85262 0.647219C9.94627 0.740871 9.99888 0.867887 9.99888 1.00033H7.99888ZM8.43852 2.06155L11.5855 5.20755L12.9995 3.79311L9.85251 0.647107L8.43852 2.06155ZM12.2925 3.50033H2.49951V5.50033H12.2925V3.50033ZM2.49951 3.50033C1.57125 3.50033 0.681015 3.86908 0.024638 4.52545L1.43885 5.93967C1.72016 5.65836 2.10169 5.50033 2.49951 5.50033V3.50033ZM0.024638 4.52545C-0.631739 5.18183 -1.00049 6.07207 -1.00049 7.00033H0.999512C0.999512 6.6025 1.15755 6.22097 1.43885 5.93967L0.024638 4.52545ZM-1.00049 7.00033V15.0003H0.999512V7.00033H-1.00049ZM-1.00049 15.0003C-1.00049 15.3982 -0.842454 15.7797 -0.561148 16.061L0.853065 14.6468C0.946834 14.7405 0.999512 14.8677 0.999512 15.0003H-1.00049ZM-0.561148 16.061C-0.279842 16.3423 0.101689 16.5003 0.499512 16.5003V14.5003C0.632118 14.5003 0.759295 14.553 0.853065 14.6468L-0.561148 16.061ZM0.499512 16.5003C0.897334 16.5003 1.27887 16.3423 1.56017 16.061L0.145958 14.6468C0.239728 14.553 0.366905 14.5003 0.499512 14.5003V16.5003ZM1.56017 16.061C1.84148 15.7797 1.99951 15.3982 1.99951 15.0003H-0.000488281C-0.000488281 14.8677 0.0521895 14.7405 0.145958 14.6468L1.56017 16.061ZM1.99951 15.0003V7.00033H-0.000488281V15.0003H1.99951ZM1.99951 7.00033C1.99951 6.86772 2.05219 6.74054 2.14596 6.64677L0.731745 5.23256C0.262904 5.7014 -0.000488281 6.33728 -0.000488281 7.00033H1.99951ZM2.14596 6.64677C2.23973 6.553 2.3669 6.50033 2.49951 6.50033V4.50033C1.83647 4.50033 1.20058 4.76372 0.731745 5.23256L2.14596 6.64677ZM2.49951 6.50033H12.2925V4.50033H2.49951V6.50033ZM11.5855 4.79311L8.43852 7.93911L9.85251 9.35355L12.9995 6.20755L11.5855 4.79311ZM8.43841 7.93922C8.15698 8.22064 7.99888 8.60234 7.99888 9.00033H9.99888C9.99888 9.13276 9.94627 9.25978 9.85262 9.35343L8.43841 7.93922ZM7.99888 9.00033C7.99888 9.39832 8.15698 9.78001 8.43841 10.0614L9.85262 8.64722C9.94627 8.74087 9.99888 8.86789 9.99888 9.00033H7.99888ZM8.43841 10.0614C8.71983 10.3429 9.10152 10.501 9.49951 10.501V8.50096C9.63195 8.50096 9.75897 8.55357 9.85262 8.64722L8.43841 10.0614ZM9.49951 10.501C9.8975 10.501 10.2792 10.3429 10.5606 10.0614L9.14641 8.64722C9.24006 8.55357 9.36707 8.50096 9.49951 8.50096V10.501ZM10.5606 10.0614L14.5606 6.06143L13.1464 4.64722L9.14641 8.64722L10.5606 10.0614Z" fill="#393838" mask="url(#path-1-inside-1_302_1198)"/>
</svg>
