<svg width="14" height="16" viewBox="0 0 14 16" fill="none" xmlns="http://www.w3.org/2000/svg">
<mask id="path-1-inside-1_302_1199" fill="white">
<path fill-rule="evenodd" clip-rule="evenodd" d="M0.146405 5.35433C0.099842 5.30788 0.0628995 5.25271 0.037693 5.19196C0.0124866 5.13122 -0.000488281 5.06609 -0.000488281 5.00033C-0.000488281 4.93456 0.0124866 4.86944 0.037693 4.80869C0.0628995 4.74795 0.099842 4.69277 0.146405 4.64633L4.14641 0.646326C4.24029 0.552439 4.36763 0.499695 4.50041 0.499695C4.63318 0.499695 4.76052 0.552439 4.85441 0.646326C4.94829 0.740213 5.00104 0.86755 5.00104 1.00033C5.00104 1.1331 4.94829 1.26044 4.85441 1.35433L1.70741 4.50033H11.5004C12.1634 4.50033 12.7993 4.76372 13.2682 5.23256C13.737 5.7014 14.0004 6.33729 14.0004 7.00033V15.0003C14.0004 15.1329 13.9477 15.2601 13.854 15.3539C13.7602 15.4476 13.633 15.5003 13.5004 15.5003C13.3678 15.5003 13.2406 15.4476 13.1469 15.3539C13.0531 15.2601 13.0004 15.1329 13.0004 15.0003V7.00033C13.0004 6.6025 12.8424 6.22097 12.5611 5.93967C12.2798 5.65836 11.8982 5.50033 11.5004 5.50033H1.70741L4.85441 8.64633C4.94829 8.74021 5.00104 8.86755 5.00104 9.00033C5.00104 9.1331 4.94829 9.26044 4.85441 9.35433C4.76052 9.44821 4.63318 9.50096 4.50041 9.50096C4.36763 9.50096 4.24029 9.44821 4.14641 9.35433L0.146405 5.35433Z"/>
</mask>
<path fill-rule="evenodd" clip-rule="evenodd" d="M0.146405 5.35433C0.099842 5.30788 0.0628995 5.25271 0.037693 5.19196C0.0124866 5.13122 -0.000488281 5.06609 -0.000488281 5.00033C-0.000488281 4.93456 0.0124866 4.86944 0.037693 4.80869C0.0628995 4.74795 0.099842 4.69277 0.146405 4.64633L4.14641 0.646326C4.24029 0.552439 4.36763 0.499695 4.50041 0.499695C4.63318 0.499695 4.76052 0.552439 4.85441 0.646326C4.94829 0.740213 5.00104 0.86755 5.00104 1.00033C5.00104 1.1331 4.94829 1.26044 4.85441 1.35433L1.70741 4.50033H11.5004C12.1634 4.50033 12.7993 4.76372 13.2682 5.23256C13.737 5.7014 14.0004 6.33729 14.0004 7.00033V15.0003C14.0004 15.1329 13.9477 15.2601 13.854 15.3539C13.7602 15.4476 13.633 15.5003 13.5004 15.5003C13.3678 15.5003 13.2406 15.4476 13.1469 15.3539C13.0531 15.2601 13.0004 15.1329 13.0004 15.0003V7.00033C13.0004 6.6025 12.8424 6.22097 12.5611 5.93967C12.2798 5.65836 11.8982 5.50033 11.5004 5.50033H1.70741L4.85441 8.64633C4.94829 8.74021 5.00104 8.86755 5.00104 9.00033C5.00104 9.1331 4.94829 9.26044 4.85441 9.35433C4.76052 9.44821 4.63318 9.50096 4.50041 9.50096C4.36763 9.50096 4.24029 9.44821 4.14641 9.35433L0.146405 5.35433Z" fill="#393838"/>
<path d="M0.146405 5.35433L0.853513 4.64722L0.852618 4.64633L0.146405 5.35433ZM0.146405 4.64633L0.852618 5.35433L0.853512 5.35343L0.146405 4.64633ZM4.14641 0.646326L3.4393 -0.0607808V-0.0607807L4.14641 0.646326ZM5.00104 1.00033H4.00104H5.00104ZM4.85441 1.35433L5.5614 2.06155L5.56151 2.06143L4.85441 1.35433ZM1.70741 4.50033L1.00041 3.79311L-0.707351 5.50033H1.70741V4.50033ZM11.5004 4.50033V3.50033V4.50033ZM1.70741 5.50033V4.50033H-0.707351L1.00041 6.20755L1.70741 5.50033ZM4.85441 8.64633L5.56151 7.93922L5.5614 7.93911L4.85441 8.64633ZM5.00104 9.00033H6.00104H5.00104ZM4.50041 9.50096V10.501V9.50096ZM4.14641 9.35433L3.4393 10.0614L4.14641 9.35433ZM0.852618 4.64633C0.899181 4.69277 0.936124 4.74795 0.961331 4.80869L-0.885944 5.57523C-0.810325 5.75746 -0.699497 5.92299 -0.559807 6.06233L0.852618 4.64633ZM0.961331 4.80869C0.986537 4.86944 0.999512 4.93456 0.999512 5.00033H-1.00049C-1.00049 5.19763 -0.961564 5.39299 -0.885944 5.57523L0.961331 4.80869ZM0.999512 5.00033C0.999512 5.06609 0.986536 5.13122 0.961331 5.19196L-0.885944 4.42543C-0.961563 4.60766 -1.00049 4.80302 -1.00049 5.00033H0.999512ZM0.961331 5.19196C0.936126 5.2527 0.899185 5.30788 0.852618 5.35433L-0.559807 3.93833C-0.699501 4.07767 -0.810327 4.2432 -0.885944 4.42543L0.961331 5.19196ZM0.853512 5.35343L4.85351 1.35343L3.4393 -0.0607807L-0.560702 3.93922L0.853512 5.35343ZM4.85351 1.35343C4.75986 1.44708 4.63284 1.49969 4.50041 1.49969V-0.500305C4.10242 -0.500305 3.72072 -0.342205 3.4393 -0.0607808L4.85351 1.35343ZM4.50041 1.49969C4.36797 1.49969 4.24095 1.44708 4.1473 1.35343L5.56151 -0.0607807C5.28009 -0.342205 4.8984 -0.500305 4.50041 -0.500305V1.49969ZM4.1473 1.35343C4.05365 1.25978 4.00104 1.13276 4.00104 1.00033H6.00104C6.00104 0.602336 5.84294 0.220644 5.56151 -0.0607807L4.1473 1.35343ZM4.00104 1.00033C4.00104 0.867887 4.05365 0.740871 4.1473 0.647219L5.56151 2.06143C5.84294 1.78001 6.00104 1.39832 6.00104 1.00033H4.00104ZM4.14741 0.647107L1.00041 3.79311L2.4144 5.20755L5.5614 2.06155L4.14741 0.647107ZM1.70741 5.50033H11.5004V3.50033H1.70741V5.50033ZM11.5004 5.50033C11.8982 5.50033 12.2798 5.65836 12.5611 5.93967L13.9753 4.52545C13.3189 3.86908 12.4287 3.50033 11.5004 3.50033V5.50033ZM12.5611 5.93967C12.8424 6.22097 13.0004 6.6025 13.0004 7.00033H15.0004C15.0004 6.07207 14.6317 5.18183 13.9753 4.52545L12.5611 5.93967ZM13.0004 7.00033V15.0003H15.0004V7.00033H13.0004ZM13.0004 15.0003C13.0004 14.8677 13.0531 14.7405 13.1469 14.6468L14.5611 16.061C14.8424 15.7797 15.0004 15.3981 15.0004 15.0003H13.0004ZM13.1469 14.6468C13.2406 14.553 13.3678 14.5003 13.5004 14.5003V16.5003C13.8982 16.5003 14.2798 16.3423 14.5611 16.061L13.1469 14.6468ZM13.5004 14.5003C13.633 14.5003 13.7602 14.553 13.854 14.6468L12.4397 16.061C12.7211 16.3423 13.1026 16.5003 13.5004 16.5003V14.5003ZM13.854 14.6468C13.9477 14.7405 14.0004 14.8677 14.0004 15.0003H12.0004C12.0004 15.3981 12.1584 15.7797 12.4397 16.061L13.854 14.6468ZM14.0004 15.0003V7.00033H12.0004V15.0003H14.0004ZM14.0004 7.00033C14.0004 6.33728 13.737 5.7014 13.2682 5.23256L11.854 6.64677C11.9477 6.74054 12.0004 6.86772 12.0004 7.00033H14.0004ZM13.2682 5.23256C12.7993 4.76372 12.1634 4.50033 11.5004 4.50033V6.50033C11.633 6.50033 11.7602 6.553 11.854 6.64677L13.2682 5.23256ZM11.5004 4.50033H1.70741V6.50033H11.5004V4.50033ZM1.00041 6.20755L4.14741 9.35355L5.5614 7.93911L2.4144 4.79311L1.00041 6.20755ZM4.1473 9.35343C4.05365 9.25978 4.00104 9.13276 4.00104 9.00033H6.00104C6.00104 8.60234 5.84294 8.22064 5.56151 7.93922L4.1473 9.35343ZM4.00104 9.00033C4.00104 8.86789 4.05365 8.74087 4.1473 8.64722L5.56151 10.0614C5.84294 9.78001 6.00104 9.39832 6.00104 9.00033H4.00104ZM4.1473 8.64722C4.24095 8.55357 4.36797 8.50096 4.50041 8.50096V10.501C4.8984 10.501 5.28009 10.3429 5.56151 10.0614L4.1473 8.64722ZM4.50041 8.50096C4.63284 8.50096 4.75986 8.55357 4.85351 8.64722L3.4393 10.0614C3.72072 10.3429 4.10242 10.501 4.50041 10.501V8.50096ZM4.85351 8.64722L0.853512 4.64722L-0.560702 6.06143L3.4393 10.0614L4.85351 8.64722Z" fill="#393838" mask="url(#path-1-inside-1_302_1199)"/>
</svg>
