<svg width="16" height="14" viewBox="0 0 16 14" fill="none" xmlns="http://www.w3.org/2000/svg">
<mask id="path-1-inside-1_302_1186" fill="white">
<path fill-rule="evenodd" clip-rule="evenodd" d="M10.6458 13.8536C10.6922 13.9001 10.7474 13.9371 10.8081 13.9623C10.8689 13.9875 10.934 14.0005 10.9998 14.0005C11.0655 14.0005 11.1306 13.9875 11.1914 13.9623C11.2521 13.9371 11.3073 13.9001 11.3538 13.8536L15.3538 9.85357C15.4476 9.75969 15.5004 9.63235 15.5004 9.49957C15.5004 9.3668 15.4476 9.23946 15.3538 9.14557C15.2599 9.05169 15.1325 8.99894 14.9998 8.99894C14.867 8.99894 14.7396 9.05169 14.6458 9.14557L11.4998 12.2926V2.49957C11.4998 1.83653 11.2364 1.20065 10.7675 0.731806C10.2987 0.262965 9.6628 -0.000427246 8.99976 -0.000427246H0.999756C0.867148 -0.000427246 0.73997 0.0522512 0.646202 0.146019C0.552434 0.239788 0.499756 0.366965 0.499756 0.499573C0.499756 0.632181 0.552434 0.759358 0.646202 0.853126C0.73997 0.946894 0.867148 0.999573 0.999756 0.999573H8.99976C9.39758 0.999573 9.77911 1.15761 10.0604 1.43891C10.3417 1.72022 10.4998 2.10175 10.4998 2.49957V12.2926L7.35376 9.14557C7.25987 9.05169 7.13253 8.99894 6.99976 8.99894C6.86698 8.99894 6.73964 9.05169 6.64576 9.14557C6.55187 9.23946 6.49912 9.3668 6.49912 9.49957C6.49912 9.63235 6.55187 9.75969 6.64576 9.85357L10.6458 13.8536Z"/>
</mask>
<path fill-rule="evenodd" clip-rule="evenodd" d="M10.6458 13.8536C10.6922 13.9001 10.7474 13.9371 10.8081 13.9623C10.8689 13.9875 10.934 14.0005 10.9998 14.0005C11.0655 14.0005 11.1306 13.9875 11.1914 13.9623C11.2521 13.9371 11.3073 13.9001 11.3538 13.8536L15.3538 9.85357C15.4476 9.75969 15.5004 9.63235 15.5004 9.49957C15.5004 9.3668 15.4476 9.23946 15.3538 9.14557C15.2599 9.05169 15.1325 8.99894 14.9998 8.99894C14.867 8.99894 14.7396 9.05169 14.6458 9.14557L11.4998 12.2926V2.49957C11.4998 1.83653 11.2364 1.20065 10.7675 0.731806C10.2987 0.262965 9.6628 -0.000427246 8.99976 -0.000427246H0.999756C0.867148 -0.000427246 0.73997 0.0522512 0.646202 0.146019C0.552434 0.239788 0.499756 0.366965 0.499756 0.499573C0.499756 0.632181 0.552434 0.759358 0.646202 0.853126C0.73997 0.946894 0.867148 0.999573 0.999756 0.999573H8.99976C9.39758 0.999573 9.77911 1.15761 10.0604 1.43891C10.3417 1.72022 10.4998 2.10175 10.4998 2.49957V12.2926L7.35376 9.14557C7.25987 9.05169 7.13253 8.99894 6.99976 8.99894C6.86698 8.99894 6.73964 9.05169 6.64576 9.14557C6.55187 9.23946 6.49912 9.3668 6.49912 9.49957C6.49912 9.63235 6.55187 9.75969 6.64576 9.85357L10.6458 13.8536Z" fill="#393838"/>
<path d="M10.6458 13.8536L11.3538 13.1474L11.3529 13.1465L10.6458 13.8536ZM11.3538 13.8536L10.6466 13.1465L10.6458 13.1474L11.3538 13.8536ZM15.3538 9.85357L16.0609 10.5607L15.3538 9.85357ZM14.9998 8.99894V9.99894V8.99894ZM14.6458 9.14557L13.9386 8.43847L13.9385 8.43858L14.6458 9.14557ZM11.4998 12.2926H10.4998V14.7073L12.207 12.9996L11.4998 12.2926ZM0.999756 -0.000427246V-1.00043V-0.000427246ZM0.999756 0.999573V1.99957V0.999573ZM10.4998 12.2926L9.79254 12.9996L11.4998 14.7073V12.2926H10.4998ZM7.35376 9.14557L8.06098 8.43858L8.06086 8.43847L7.35376 9.14557ZM6.99976 8.99894V7.99894V8.99894ZM6.49912 9.49957H5.49912H6.49912ZM6.64576 9.85357L5.93865 10.5607L6.64576 9.85357ZM9.93776 14.5598C10.0771 14.6995 10.2426 14.8103 10.4249 14.8859L11.1914 13.0386C11.2521 13.0639 11.3073 13.1008 11.3538 13.1474L9.93776 14.5598ZM10.4249 14.8859C10.6071 14.9615 10.8025 15.0005 10.9998 15.0005V13.0005C11.0655 13.0005 11.1306 13.0134 11.1914 13.0386L10.4249 14.8859ZM10.9998 15.0005C11.1971 15.0005 11.3924 14.9615 11.5747 14.8859L10.8081 13.0386C10.8689 13.0134 10.934 13.0005 10.9998 13.0005V15.0005ZM11.5747 14.8859C11.7569 14.8103 11.9224 14.6995 12.0618 14.5598L10.6458 13.1474C10.6922 13.1008 10.7474 13.0639 10.8081 13.0386L11.5747 14.8859ZM12.0609 14.5607L16.0609 10.5607L14.6466 9.14647L10.6466 13.1465L12.0609 14.5607ZM16.0609 10.5607C16.3423 10.2793 16.5004 9.89756 16.5004 9.49957H14.5004C14.5004 9.36713 14.553 9.24012 14.6466 9.14647L16.0609 10.5607ZM16.5004 9.49957C16.5004 9.10158 16.3423 8.71989 16.0609 8.43847L14.6466 9.85268C14.553 9.75903 14.5004 9.63201 14.5004 9.49957H16.5004ZM16.0609 8.43847C15.7794 8.15704 15.3977 7.99894 14.9998 7.99894V9.99894C14.8673 9.99894 14.7403 9.94633 14.6466 9.85268L16.0609 8.43847ZM14.9998 7.99894C14.6018 7.99894 14.2201 8.15704 13.9386 8.43847L15.3529 9.85268C15.2592 9.94633 15.1322 9.99894 14.9998 9.99894V7.99894ZM13.9385 8.43858L10.7925 11.5856L12.207 12.9996L15.353 9.85257L13.9385 8.43858ZM12.4998 12.2926V2.49957H10.4998V12.2926H12.4998ZM12.4998 2.49957C12.4998 1.57132 12.131 0.681076 11.4746 0.024699L10.0604 1.43891C10.3417 1.72022 10.4998 2.10175 10.4998 2.49957H12.4998ZM11.4746 0.024699C10.8183 -0.631678 9.92801 -1.00043 8.99976 -1.00043V0.999573C9.39758 0.999573 9.77911 1.15761 10.0604 1.43891L11.4746 0.024699ZM8.99976 -1.00043H0.999756V0.999573H8.99976V-1.00043ZM0.999756 -1.00043C0.601932 -1.00043 0.220401 -0.842393 -0.0609047 -0.561087L1.35331 0.853126C1.25954 0.946895 1.13236 0.999573 0.999756 0.999573V-1.00043ZM-0.0609047 -0.561087C-0.342211 -0.279781 -0.500244 0.10175 -0.500244 0.499573H1.49976C1.49976 0.632179 1.44708 0.759356 1.35331 0.853126L-0.0609047 -0.561087ZM-0.500244 0.499573C-0.500244 0.897395 -0.342211 1.27893 -0.0609047 1.56023L1.35331 0.146019C1.44708 0.239789 1.49976 0.366967 1.49976 0.499573H-0.500244ZM-0.0609047 1.56023C0.220401 1.84154 0.601932 1.99957 0.999756 1.99957V-0.000427246C1.13236 -0.000427246 1.25954 0.0522505 1.35331 0.146019L-0.0609047 1.56023ZM0.999756 1.99957H8.99976V-0.000427246H0.999756V1.99957ZM8.99976 1.99957C9.13236 1.99957 9.25954 2.05225 9.35331 2.14602L10.7675 0.731806C10.2987 0.262965 9.6628 -0.000427246 8.99976 -0.000427246V1.99957ZM9.35331 2.14602C9.44708 2.23979 9.49976 2.36697 9.49976 2.49957H11.4998C11.4998 1.83653 11.2364 1.20065 10.7675 0.731806L9.35331 2.14602ZM9.49976 2.49957V12.2926H11.4998V2.49957H9.49976ZM11.207 11.5856L8.06098 8.43858L6.64654 9.85257L9.79254 12.9996L11.207 11.5856ZM8.06086 8.43847C7.77944 8.15704 7.39775 7.99894 6.99976 7.99894V9.99894C6.86732 9.99894 6.7403 9.94633 6.64665 9.85268L8.06086 8.43847ZM6.99976 7.99894C6.60177 7.99894 6.22007 8.15704 5.93865 8.43847L7.35286 9.85268C7.25921 9.94633 7.13219 9.99894 6.99976 9.99894V7.99894ZM5.93865 8.43847C5.65722 8.71989 5.49912 9.10158 5.49912 9.49957H7.49912C7.49912 9.63201 7.44651 9.75903 7.35286 9.85268L5.93865 8.43847ZM5.49912 9.49957C5.49912 9.89756 5.65722 10.2793 5.93865 10.5607L7.35286 9.14647C7.44651 9.24012 7.49912 9.36713 7.49912 9.49957H5.49912ZM5.93865 10.5607L9.93865 14.5607L11.3529 13.1465L7.35286 9.14647L5.93865 10.5607Z" fill="#393838" mask="url(#path-1-inside-1_302_1186)"/>
</svg>
