<svg width="25" height="20" viewBox="0 0 25 20" fill="none" xmlns="http://www.w3.org/2000/svg">
<g clip-path="url(#clip0_624_1286)">
<path d="M12.4713 19.9997C8.72683 19.9997 4.96857 19.9997 1.22408 19.9997C0.990045 19.9997 0.728481 19.9997 0.508217 19.9014C0.150287 19.7469 -0.0286778 19.4238 -0.00114473 19.0165C0.0401548 18.6233 0.260419 18.3424 0.632115 18.23C0.797313 18.1738 0.990045 18.1738 1.15524 18.1738C8.6993 18.1738 16.2571 18.1738 23.8012 18.1738C24.0077 18.1738 24.2142 18.1879 24.4069 18.2441C24.7924 18.3705 25.0402 18.8059 24.9851 19.1991C24.9163 19.6205 24.6272 19.9294 24.2004 19.9716C24.0352 19.9856 23.87 19.9856 23.7048 19.9856C19.9603 19.9997 16.2158 19.9997 12.4713 19.9997Z" fill="#393838"/>
<path d="M12.4713 10.9128C8.72683 10.9128 4.96857 10.9128 1.22408 10.9128C0.990045 10.9128 0.728481 10.9128 0.508217 10.8144C0.150287 10.6599 -0.0286778 10.3369 -0.00114473 9.92961C0.0401548 9.53635 0.260419 9.25545 0.632115 9.14309C0.797313 9.08691 0.990045 9.08691 1.15524 9.08691C8.6993 9.08691 16.2571 9.08691 23.8012 9.08691C24.0077 9.08691 24.2142 9.10096 24.4069 9.15714C24.7924 9.28354 25.0402 9.71894 24.9851 10.1122C24.9163 10.5335 24.6272 10.8425 24.2004 10.8847C24.0352 10.8987 23.87 10.8987 23.7048 10.8987C19.9603 10.9128 16.2158 10.9128 12.4713 10.9128Z" fill="#393838"/>
<path d="M12.4713 1.82584C8.72683 1.82584 4.96857 1.82584 1.22408 1.82584C0.990045 1.82584 0.728481 1.82584 0.508217 1.72753C0.150287 1.57303 -0.0286778 1.25 -0.00114473 0.842697C0.0401548 0.449438 0.260419 0.168539 0.632115 0.0561798C0.81108 0.0140449 0.990045 0 1.16901 0C8.71306 0 16.2709 0 23.8149 0C24.0214 0 24.2279 0.0140449 24.4207 0.0702247C24.8061 0.196629 25.0539 0.632023 24.9989 1.02528C24.93 1.44663 24.6409 1.75562 24.2142 1.79775C24.049 1.8118 23.8838 1.8118 23.7186 1.8118C19.9603 1.82584 16.2158 1.82584 12.4713 1.82584Z" fill="#393838"/>
</g>
<defs>
<clipPath id="clip0_624_1286">
<rect width="25" height="20" fill="white"/>
</clipPath>
</defs>
</svg>
