<svg width="123" height="36" viewBox="0 0 123 36" fill="none" xmlns="http://www.w3.org/2000/svg">
<path d="M85.5921 8.85526H82.5312V26.8581H85.5921V15.7291H88.6529V12.6913H85.5921V8.85526Z" fill="#197ACF"/>
<path d="M63.012 12.691H59.9512V26.8578H63.012V12.691Z" fill="#197ACF"/>
<path d="M63.012 8.85526H59.9512V11.8931H63.012V8.85526Z" fill="#197ACF"/>
<path d="M40.5957 8.91861V26.8583H53.8111L56.8719 23.8435V11.9334L53.8111 8.91861H40.5957ZM53.8111 23.8033H43.6739V9.41247L46.2371 11.9334H53.8284L53.8111 23.8033Z" fill="#197ACF"/>
<path d="M79.5018 15.7288L78.4488 12.691H67.3858L65.9277 17.3941L76.5972 23.843H66.4427L66.8824 26.8578H78.6166L80.011 22.2983L69.1448 15.7288H79.5018Z" fill="#197ACF"/>
<path d="M118.673 26.8582H123.001L115.085 19.0886L120.704 12.6741H116.648L111.319 18.7612V8.85535H108.258V26.8582H111.319V23.3955L113.078 21.3856L118.673 26.8582Z" fill="#197ACF"/>
<path d="M105.863 17.8365L104.069 12.6682H92.3584L91.0508 15.7462V22.2985L92.6767 26.8581H103.734L104.665 23.8145H94.0537V23.7456L105.863 17.8365ZM94.0537 17.4231V15.93H102.733L94.0537 20.1335V17.4231Z" fill="#197ACF"/>
<path d="M15.7091 1.90652L29.7519 9.94608V26.0252L15.7091 34.0648L1.66638 26.0252V9.94608L15.7091 1.90652ZM15.7091 0L0 8.99856V27.0014L15.7091 36L31.4125 27.0014V8.99856L15.7091 0Z" fill="#197ACF"/>
<path d="M23.584 31.4866V4.52539L31.4125 8.99883V27.0017L23.584 31.4866Z" fill="#197ACF"/>
<path d="M8.23438 31.716C8.66254 31.5725 23.5848 22.7749 23.5848 22.7749L31.4133 27.0014L15.71 36L8.23438 31.716Z" fill="url(#paint0_linear_302_1116)"/>
<path d="M8.23438 13.9543L15.71 9.2626V35.9999L8.23438 31.716V13.9543Z" fill="url(#paint1_linear_302_1116)"/>
<path d="M7.75977 4.55384L31.4132 18.2153V8.99856L23.6078 4.52512L15.7098 0L7.75977 4.55384Z" fill="url(#paint2_linear_302_1116)"/>
<defs>
<linearGradient id="paint0_linear_302_1116" x1="16.2365" y1="28.7471" x2="36.454" y2="32.587" gradientUnits="userSpaceOnUse">
<stop stop-color="#00C8FF"/>
<stop offset="1" stop-color="#055CFF"/>
</linearGradient>
<linearGradient id="paint1_linear_302_1116" x1="12.8574" y1="8.8836" x2="11.9227" y2="26.1063" gradientUnits="userSpaceOnUse">
<stop stop-color="#00C8FF"/>
<stop offset="1" stop-color="#197ACF"/>
</linearGradient>
<linearGradient id="paint2_linear_302_1116" x1="1759.53" y1="838.999" x2="1254.86" y2="431.41" gradientUnits="userSpaceOnUse">
<stop stop-color="#00C8FF"/>
<stop offset="1" stop-color="#197ACF"/>
</linearGradient>
</defs>
</svg>
