<svg width="144" height="144" viewBox="0 0 144 144" fill="none" xmlns="http://www.w3.org/2000/svg">
<path d="M71.8366 7.6261L128.008 39.7843V104.101L71.8366 136.259L15.6655 104.101V39.7843L71.8366 7.6261ZM71.8366 0L9 35.9943V108.006L71.8366 144L134.65 108.006V35.9943L71.8366 0Z" fill="#197ACF"/>
<path d="M103.336 125.946V18.1015L134.65 35.9953V108.007L103.336 125.946Z" fill="#197ACF"/>
<path d="M41.9375 126.864C43.6502 126.29 103.339 91.0997 103.339 91.0997L134.653 108.006L71.8398 144L41.9375 126.864Z" fill="url(#paint0_linear_311_5347)"/>
<path d="M41.9375 55.817L71.8398 37.0504V144L41.9375 126.864V55.817Z" fill="url(#paint1_linear_311_5347)"/>
<path d="M40.0391 18.2153L134.653 72.8614V35.9943L103.431 18.1005L71.8392 0L40.0391 18.2153Z" fill="url(#paint2_linear_311_5347)"/>
<defs>
<linearGradient id="paint0_linear_311_5347" x1="73.946" y1="114.989" x2="154.816" y2="130.348" gradientUnits="userSpaceOnUse">
<stop stop-color="#00C8FF"/>
<stop offset="1" stop-color="#055CFF"/>
</linearGradient>
<linearGradient id="paint1_linear_311_5347" x1="60.4297" y1="35.5344" x2="56.6908" y2="104.425" gradientUnits="userSpaceOnUse">
<stop stop-color="#00C8FF"/>
<stop offset="1" stop-color="#197ACF"/>
</linearGradient>
<linearGradient id="paint2_linear_311_5347" x1="7047.12" y1="3356" x2="5028.43" y2="1725.64" gradientUnits="userSpaceOnUse">
<stop stop-color="#00C8FF"/>
<stop offset="1" stop-color="#197ACF"/>
</linearGradient>
</defs>
</svg>
